# xmcd
#
# Track frame offsets:
#	150
#	18067
#	37256
#	49023
#	68213
#	86070
#	101139
#	115328
#	129407
#	144017
#	161090
#
# Disc length: 2381 seconds
#
# Revision: 0
# Processed by: cddbd v1.5.1PL0 Copyright (c) Steve Scherf et al.
# Submitted via: dBpowerAMP V4.0
#
DISCID=91094b0b
DTITLE=Josh Gracin - Self Titled
DYEAR=2004
DGENRE=Country
TTITLE0=I Want To Live
TTITLE1=Wheels
TTITLE2=Nothin' To Lose
TTITLE3=Brass Bed
TTITLE4=Peace Of Mind
TTITLE5=Endless Helpless Hoping
TTITLE6=No One To Share The Blame
TTITLE7=I  Would Look Good With You
TTITLE8=Turn It Up
TTITLE9=The Long One
TTITLE10=The Other Little Soldier
EXTD=
EXTT0=
EXTT1=
EXTT2=
EXTT3=
EXTT4=
EXTT5=
EXTT6=
EXTT7=
EXTT8=
EXTT9=
EXTT10=
PLAYORDER=
